<svg id="Layer_1" data-name="Layer 1" xmlns="http://www.w3.org/2000/svg" viewBox="0 0 500 262.44"><defs><style>.cls-1{font-size:49.867px;fill:#111827;font-family:Inter-Light, Inter;font-weight:300;}.cls-2{letter-spacing:-0.074em;}.cls-3{letter-spacing:0em;}.cls-4{fill:#1b4965;stroke:#1b4965;stroke-miterlimit:10;stroke-width:3px;fill-rule:evenodd;}</style></defs><title>Ulogo</title><g id="V3"><text class="cls-1" transform="translate(170.788 247.54)">UVESH SI<tspan class="cls-2" x="226.984" y="0">P</tspan><tspan class="cls-3" x="254.621" y="0">AI</tspan></text><g id="svgg"><path id="path0" class="cls-4" d="M240.081,19.92C196.779,41.5,125.7,93.489,79.272,137.543c-105.831,100.412-69.248,125.131,77.08,52.084,23.077-11.52,59.841-31.541,81.731-44.508,3.358-1.988,5.615-3.009,5.016-2.269s-3.426,3.962-6.283,7.155c-26.417,29.539-3.844,37.884,74.262,27.457,8.276-1.1,40.224-5.51,71-9.79,70.895-9.86,92.919-10.809,94.608-4.077.651,2.592,2.015,2.416,1.712-.22-.973-8.457-33.9-7.568-107.124,2.893-27.136,3.876-59.992,8.027-91.833,11.6-10.974,1.231-32.172,1.015-38.235-.392-17.28-4.007-15.616-11.679,7.481-34.506,17.049-16.848,14.735-16.572-17.9,2.136-102.557,58.781-181.885,90.58-203.347,81.514-19.5-8.236,22.379-61.693,94.193-120.24,42.344-34.523,76.254-56.533,123.825-80.375,9.474-4.747,10.577-5.757,9.778-8.942-.815-3.243-4.184-2.609-15.147,2.856M481.505,173.958a1.842,1.842,0,1,1-1.841-1.841A1.841,1.841,0,0,1,481.505,173.958Z"/></g></g></svg>