<svg id="Layer_1" data-name="Layer 1" xmlns="http://www.w3.org/2000/svg" viewBox="0 0 474.84 196.56"><defs><style>.cls-1{fill:#a00c30;}.cls-2,.cls-3{fill:#343434;stroke:#343434;stroke-miterlimit:10;}.cls-2{stroke-width:5px;}.cls-3{stroke-width:4px;}</style></defs><title>U_Logo_transparant</title><g id="Red"><path class="cls-1" d="M124.41,163.08a70.31,70.31,0,0,0,14.2-13A18.47,18.47,0,0,0,124.41,163.08Z"/><path class="cls-1" d="M99.06,168.23a43.36,43.36,0,0,0,.38,5.62q3-.66,6-1.56a36.42,36.42,0,0,1-.23-4.06,36.93,36.93,0,0,1,44.29-36.18q1.19-2.87,2.12-5.83a43.06,43.06,0,0,0-52.56,42Z"/><path class="cls-1" d="M111.37,168.23c0,.64,0,1.27.06,1.9q3.13-1.31,6.11-2.88a24.61,24.61,0,0,1,24.59-23.63c.42,0,.84,0,1.25,0,1.24-1.88,2.38-3.83,3.43-5.83a30.16,30.16,0,0,0-4.68-.36A30.77,30.77,0,0,0,111.37,168.23Z"/><path class="cls-1" d="M74.07,168.23c0,2.16.11,4.3.3,6.41,2.18.32,4.4.54,6.64.66A61.57,61.57,0,0,1,154.72,108c0-.88.06-1.75.06-2.64v-4a68.09,68.09,0,0,0-80.71,66.88Z"/><path class="cls-1" d="M86.75,168.23a55.78,55.78,0,0,0,.46,7.12q3.11-.1,6.14-.48a50.15,50.15,0,0,1-.44-6.64,49.25,49.25,0,0,1,60.27-48c.43-2,.79-4,1-6.07a55.4,55.4,0,0,0-67.47,54Z"/><path class="cls-1" d="M46,100.85A30.77,30.77,0,0,0,15.27,70.08l-.59,0v6.15h.59a24.61,24.61,0,0,1,2.31,49.11c.6,2,1.29,4,2.07,6A30.77,30.77,0,0,0,46,100.85Z"/><path class="cls-1" d="M130.8,21.21a18.73,18.73,0,0,0-.51,4.33A18.46,18.46,0,0,0,148.75,44a18.26,18.26,0,0,0,6-1V21.21Z"/><path class="cls-1" d="M33.73,100.85A18.46,18.46,0,0,0,15.27,82.39h-.59v22.95a70.41,70.41,0,0,0,1.39,13.94A18.47,18.47,0,0,0,33.73,100.85Z"/><path class="cls-1" d="M123.69,88.83a78.33,78.33,0,0,0-9.21,2.59,74.25,74.25,0,0,1-40-65.88c0-1.46,0-2.9.13-4.33H14.68v5.4h.59a74.25,74.25,0,0,1,74.25,74.25c0,1.68-.06,3.34-.17,5a78,78,0,0,0-7,6.8,68.5,68.5,0,0,0,1-11.8A68.06,68.06,0,0,0,15.27,32.79h-.59v6.52h.59A61.54,61.54,0,0,1,38.4,157.88a69.27,69.27,0,0,0,5.78,4.59,68.19,68.19,0,0,0,19.42-13.7,79,79,0,0,0-1.49,9.68,74.35,74.35,0,0,1-11.84,7.89,69.49,69.49,0,0,0,17.8,7.06c-.12-1.71-.19-3.43-.19-5.17a74.28,74.28,0,0,1,86.9-73.17V86.78q-3,.28-6,.29A61.53,61.53,0,0,1,87.21,25.54c0-1.46.06-2.9.16-4.33H80.83c-.09,1.43-.14,2.87-.14,4.33A68.07,68.07,0,0,0,123.69,88.83Z"/><path class="cls-1" d="M70.65,100.85A55.38,55.38,0,0,0,15.27,45.47h-.59v6.15h.59a49.23,49.23,0,0,1,13.94,96.45q2,2.64,4.31,5.07A55.38,55.38,0,0,0,70.65,100.85Z"/><path class="cls-1" d="M148.75,62.46a36.92,36.92,0,0,1-36.92-36.92,36.35,36.35,0,0,1,.26-4.33h-6.2c-.14,1.42-.22,2.87-.22,4.33a43,43,0,0,0,49.11,42.64V62A37.55,37.55,0,0,1,148.75,62.46Z"/><path class="cls-1" d="M148.75,50.15a24.58,24.58,0,0,1-24.23-28.94h-6.23a30.79,30.79,0,0,0,36.49,34.5V49.4A24.47,24.47,0,0,1,148.75,50.15Z"/><path class="cls-1" d="M58.34,100.85A43.07,43.07,0,0,0,15.27,57.78h-.59v6.15h.59a36.92,36.92,0,0,1,7,73.17c1,1.92,2.05,3.78,3.19,5.6A43.09,43.09,0,0,0,58.34,100.85Z"/><path class="cls-1" d="M148.75,74.76A49.23,49.23,0,0,1,99.52,25.54c0-1.46.07-2.9.19-4.33H93.53c-.11,1.43-.16,2.87-.16,4.33a55.38,55.38,0,0,0,55.38,55.38,57.42,57.42,0,0,0,6-.33V74.4A50.07,50.07,0,0,1,148.75,74.76Z"/></g><path class="cls-2" d="M207.34,84.45a27.35,27.35,0,0,1-8.51-1.27,19.48,19.48,0,0,1-6.8-3.79,17.07,17.07,0,0,1-4.51-6.25,21.44,21.44,0,0,1-1.61-8.59V24.24H193V64.29A14.63,14.63,0,0,0,194,70a11.74,11.74,0,0,0,3,4.21,13.31,13.31,0,0,0,4.55,2.59,19.25,19.25,0,0,0,11.57,0,13.21,13.21,0,0,0,4.55-2.59,12.1,12.1,0,0,0,3-4.21,14.11,14.11,0,0,0,1.11-5.75V24.24h7V64.55a21.1,21.1,0,0,1-1.65,8.59,17.63,17.63,0,0,1-4.55,6.25,19.52,19.52,0,0,1-6.81,3.79A27.29,27.29,0,0,1,207.34,84.45Z"/><path class="cls-2" d="M285.16,24.24h7L279,55.36q-6.54,15.48-13.18,31.13-6.63-15.64-13.18-31.13L239.49,24.24h7l9.27,21.9Q260.41,57,265.09,68l.76,2.8.77-2.8q4.67-11.06,9.27-21.9Z"/><path class="cls-2" d="M302.16,83.77V24.24h36.66V31h-29.6V50.43H335.5v6.72H309.22v19.9H340v6.72Z"/><path class="cls-2" d="M385.6,30.11c-.68.85-1.35,1.7-2,2.55s-1.32,1.7-2,2.55a15.43,15.43,0,0,0-1.79-1.49,16.15,16.15,0,0,0-2.51-1.49,18.54,18.54,0,0,0-3.14-1.15,14.32,14.32,0,0,0-3.7-.46q-4.93,0-7.32,2.8a10,10,0,0,0-2.38,6.64,7.25,7.25,0,0,0,.81,3.57,7.62,7.62,0,0,0,2.13,2.42,13.73,13.73,0,0,0,3,1.66c1.11.45,2.26.88,3.45,1.28,1.87.68,3.88,1.48,6,2.42a27.67,27.67,0,0,1,6,3.57,18.61,18.61,0,0,1,4.6,5.32,14.91,14.91,0,0,1,1.82,7.57,16.32,16.32,0,0,1-1.4,6.89A15.78,15.78,0,0,1,383.34,80a16.78,16.78,0,0,1-5.65,3.31,20.12,20.12,0,0,1-6.81,1.15,22.55,22.55,0,0,1-6.29-.89,27.7,27.7,0,0,1-5.61-2.3,27.1,27.1,0,0,1-4.55-3.1,16.24,16.24,0,0,1-3.11-3.4l4.43-4.43a30.88,30.88,0,0,0,2.63,2.51,26.48,26.48,0,0,0,3.32,2.43,17.63,17.63,0,0,0,3.91,1.78,14.81,14.81,0,0,0,4.59.68,14.09,14.09,0,0,0,4.26-.64,11,11,0,0,0,3.61-1.87,9,9,0,0,0,2.51-3.1,9.63,9.63,0,0,0,.93-4.34,8.77,8.77,0,0,0-1.65-5.53,14.25,14.25,0,0,0-4.09-3.53,26.29,26.29,0,0,0-5.06-2.25c-1.75-.57-3.29-1.11-4.59-1.62-1-.39-2.24-.93-3.66-1.61a16.82,16.82,0,0,1-4-2.77,15.66,15.66,0,0,1-3.27-4.33,14.23,14.23,0,0,1-1.45-6.34,17.51,17.51,0,0,1,.77-5.61,14.19,14.19,0,0,1,2.81-5.11,14.45,14.45,0,0,1,5.18-3.74,19.41,19.41,0,0,1,7.91-1.44,22.58,22.58,0,0,1,7.06,1.19A25.26,25.26,0,0,1,385.6,30.11Z"/><path class="cls-2" d="M401.92,83.77V24.24H409V50.43h32.15V24.24h7.06V83.77h-7.06V57.15H409V83.77Z"/><path class="cls-3" d="M215.67,117.48a3.81,3.81,0,0,0-.68.94,3.81,3.81,0,0,1-.68.94,21.46,21.46,0,0,0-1.91-1.49,19.13,19.13,0,0,0-2.64-1.53,17.16,17.16,0,0,0-3.36-1.19,16.55,16.55,0,0,0-4-.47,13.13,13.13,0,0,0-5.48,1.06,11.37,11.37,0,0,0-3.91,2.85,11.68,11.68,0,0,0-2.34,4.08,15,15,0,0,0-.77,4.77,11.32,11.32,0,0,0,.77,4.38,8.31,8.31,0,0,0,2.21,3.1,13.81,13.81,0,0,0,3.49,2.21,45,45,0,0,0,4.59,1.79c1.75.62,3.77,1.29,6,2a27.5,27.5,0,0,1,6.42,3,18,18,0,0,1,5.1,4.89,13.07,13.07,0,0,1,2.08,7.66,16.06,16.06,0,0,1-1.4,6.8,15.52,15.52,0,0,1-3.87,5.23,17.22,17.22,0,0,1-5.74,3.32,20.91,20.91,0,0,1-6.93,1.15,19.54,19.54,0,0,1-6.08-.9,24.55,24.55,0,0,1-4.89-2.12,23.86,23.86,0,0,1-3.66-2.55,26.18,26.18,0,0,1-2.38-2.26l1.7-1.7a29.45,29.45,0,0,0,2.72,2.55,21.31,21.31,0,0,0,3.4,2.3,21.8,21.8,0,0,0,4.09,1.7,16.51,16.51,0,0,0,4.84.68,18.14,18.14,0,0,0,5.91-1,16.58,16.58,0,0,0,5.07-2.76,13.34,13.34,0,0,0,3.52-4.38,12.66,12.66,0,0,0,1.32-5.83,11.58,11.58,0,0,0-1.7-6.5,14.77,14.77,0,0,0-4.29-4.3,24.45,24.45,0,0,0-5.66-2.72l-5.87-2c-1-.28-2.27-.69-3.74-1.23a17.12,17.12,0,0,1-4.25-2.3,14.35,14.35,0,0,1-3.53-3.74,11.08,11.08,0,0,1-1.66-5.65,17,17,0,0,1,.64-5.66,14.63,14.63,0,0,1,2.63-5.15,13.24,13.24,0,0,1,4.77-3.69,16,16,0,0,1,7-1.41,19.83,19.83,0,0,1,6.47,1.11A21.11,21.11,0,0,1,215.67,117.48Z"/><path class="cls-3" d="M235,112.72h2.38v59.54H235Z"/><path class="cls-3" d="M253,172.26V112.72h12.33a21.37,21.37,0,0,1,5.61.85,19.27,19.27,0,0,1,5.74,2.68,15.34,15.34,0,0,1,4.47,4.76,13.27,13.27,0,0,1,1.78,7q0,7.23-4.67,11.48t-13.44,4.26h-9.44v28.49Zm2.38-30.79h9.27a20.25,20.25,0,0,0,7.74-1.28,13.62,13.62,0,0,0,4.89-3.27,11.33,11.33,0,0,0,2.55-4.34,15.4,15.4,0,0,0,.72-4.55,11,11,0,0,0-1.19-4.93,12.9,12.9,0,0,0-3.32-4.17,16.66,16.66,0,0,0-5-2.85,18.11,18.11,0,0,0-6.3-1.06h-9.35Z"/><path class="cls-3" d="M342.82,172.26h-2.39q-2.81-6.56-5.57-13.1t-5.57-13.1H303.61q-2.73,6.56-5.49,13.1t-5.57,13.1h-2.46l13.18-31.13q6.54-15.48,13.18-31.13,6.63,15.65,13.18,31.13T342.82,172.26Zm-25.6-54.69-.77-2.3q-2.64,7.32-5.74,14.33t-6.08,14.17h23.64q-2.72-6.65-5.48-13.1T317.22,117.57Z"/><path class="cls-3" d="M356.85,112.72h2.38v59.54h-2.38Z"/></svg>